<svg width="199" height="35" viewBox="0 0 199 35" fill="none" xmlns="http://www.w3.org/2000/svg">
<path d="M162.104 10H166.184V18.16H162.104V10ZM178.424 14.08V10H182.504V14.08H178.424ZM194.744 10H198.824V18.16H194.744V10ZM174.344 14.08H178.424V30.4H174.344V14.08ZM186.584 30.4H182.504V14.08H186.584V30.4ZM170.264 18.16V30.4H166.184V18.16H170.264ZM190.664 18.16H194.744V30.4H190.664V18.16ZM174.344 34.48H170.264V30.4H174.344V34.48ZM190.664 34.48H186.584V30.4H190.664V34.48Z" fill="#FF4835"/>
<path d="M153.024 14.08H139.152V10H153.024V14.08ZM139.152 30.4H135.072V14.08H139.152V30.4ZM153.024 14.08H157.104V30.4H153.024V14.08ZM139.152 30.4H153.024V34.48H139.152V30.4Z" fill="#FF4835"/>
<path d="M117.832 10H121.912V14.08H125.992V18.16H121.912V34.48H117.832V10ZM125.992 14.08V10H130.072V14.08H125.992Z" fill="#FF4835"/>
<path d="M94.256 10V16.096H90.176V10H94.256ZM112.832 10V16.096H108.752V10H112.832ZM98.3361 16.096V20.176H94.256V16.096H98.3361ZM108.752 16.096V20.176H104.672V16.096H108.752ZM104.672 20.176V24.256H98.3361V20.176H104.672ZM98.3361 24.256V28.336H94.256V24.256H98.3361ZM108.752 24.256V28.336H104.672V24.256H108.752ZM94.256 28.336V34.48H90.176V28.336H94.256ZM112.832 28.336V34.48H108.752V28.336H112.832Z" fill="#FF4835"/>
<path d="M81.096 14.08H67.224V10H81.096V14.08ZM67.224 30.4H63.144V14.08H67.224V30.4ZM81.096 14.08H85.176V30.4H81.096V14.08ZM67.224 30.4H81.096V34.48H67.224V30.4Z" fill="#FF4835"/>
<path d="M40.192 25.728H44.2721V29.808H40.192V33.888H36.1121V0H40.192V13.488H44.2721V17.568H40.192V25.728ZM54.0641 9.408V13.488H44.2721V9.408H54.0641ZM54.0641 13.488H58.144V29.808H54.0641V13.488ZM44.2721 33.888V29.808H54.0641V33.888H44.2721Z" fill="#FF4835"/>
<path d="M9.08008 10H13.1601V14.08H17.2401V18.16H13.1601V34.48H9.08008V10ZM17.2401 10H27.0321V14.08H17.2401V10ZM27.0321 14.08H31.1121V34.48H27.0321V14.08Z" fill="#FF4835"/>
<path d="M0 4.08V0H4.07999V4.08H0ZM0 9.408H4.07999V33.888H0V9.408Z" fill="#FF4835"/>
</svg>
